# xmcd
#
# Track frame offsets:
#	150
#	15844
#	27126
#	39583
#	51893
#	65341
#	83081
#	95044
#	112342
#	123264
#
# Disc length: 1854 seconds
#
# Revision: 1
# Processed by: cddbd v1.5.2PL0 Copyright (c) Steve Scherf et al.
# Submitted via: EZCDAudioConverter 6.0.5.1
#
DISCID=7a073c0a
DTITLE=Lyne Charbonneau - Danser Pour T'oublier
DYEAR=1900
DGENRE=Country
TTITLE0=Pour Tout Au Monde, Je N'aurai Manqué
TTITLE1=Même Une Cowgirl A Les Bleus
TTITLE2=Pour Une Étrangère
TTITLE3=Amour Aie Pitié
TTITLE4=Je Pleure Les Larmes De Mon Coeur
TTITLE5=Dancer Pour T'oublier
TTITLE6=Parler Coeur À Coeur
TTITLE7=Entoure Moi D'amour
TTITLE8=Un Mal D'amour
TTITLE9=J'attend Que Le Soleil Brille
EXTD=
EXTT0=
EXTT1=
EXTT2=
EXTT3=
EXTT4=
EXTT5=
EXTT6=
EXTT7=
EXTT8=
EXTT9=
PLAYORDER=
